<svg xmlns="http://www.w3.org/2000/svg" viewBox="0 0 208.35 31.112"><g fill="currentColor" clip-path="url(#a)" transform="matrix(.13 0 0 -.13 0 31.112)"><path d="M26.043 196.28c0 13.719-.547 19.473-4.941 19.473-2.743 0-5.477-1.918-9.043-1.918-9.04 0-12.06 7.394-12.06 15.617 0 10.691 4.669 19.199 16.173 19.199 7.128 0 14.53-2.746 21.934-2.746 8.234 0 16.172 2.746 24.129 2.746 6.586 0 9.035-4.121 9.035-14.808V186.69h.558c8.496 12.059 21.922 18.368 37.828 18.368 39.477 0 53.457-40.028 53.457-73.465 0-37.555-17.547-77.313-60.308-77.313-18.098 0-34.543 6.574-44.145 25.226l-.547-.559.832-6.843c0-8.77-7.402-12.891-15.359-12.891-14.535 0-17.543 6.855-17.543 20.02v117.05zm91.84-67.16c0 9.32-.832 19.469-5.488 27.414-3.555 6.039-9.59 11.52-16.723 11.52-10.406 0-24.402-10.145-24.402-39.485 0-26.316 10.422-37.285 24.133-37.285 13.153 0 22.481 11.797 22.481 37.836"/><path d="M218.48 120.35c0-5.758 0-15.352 3.293-20.84 3.281-5.195 9.316-8.488 15.339-8.488 7.95 0 15.352 4.113 19.746 10.96 5.762 8.77 6.297 18.099 6.297 28.244v18.91c0 14.808-1.089 19.187-4.929 19.187-1.368 0-2.743-.54-4.114-.82-1.648-.551-3.015-1.086-4.929-1.086-9.043 0-12.071 7.395-12.071 15.617 0 10.422 4.668 18.918 16.719 18.918 9.055 0 15.086-2.738 24.133-2.738 7.398 0 12.613 2.738 19.461 2.738 7.129 0 8.777-3.02 8.777-9.047v-82.25c0-16.441 1.914-19.187 4.934-19.187 2.746 0 5.476 1.925 9.055 1.925 9.031 0 12.058-7.394 12.058-15.637 0-10.41-4.668-18.914-16.183-18.914-6.852 0-13.165 2.754-19.461 2.754-6.028 0-12.063-2.754-17.266-2.754-6.863 0-9.871 4.676-9.871 9.051V77.87h-.551c-10.144-15.09-29.883-23.594-48.25-23.594-28.23 0-45.234 16.457-45.234 44.141v50.72c0 16.725-1.914 19.186-4.922 19.186-1.375 0-2.754-.539-4.121-.82-1.641-.55-3.02-1.086-4.934-1.086-9.051 0-12.058 7.395-12.058 15.617 0 10.422 4.66 18.918 17.539 18.918 8.769 0 15.898-2.738 24.953-2.738 8.484 0 12.605 2.738 19.461 2.738 7.129 0 7.129-5.21 7.129-12.34v-68.26"/><path d="M423.79 89.102C409.521 49.903 386.778 0 337.981 0c-21.117 0-46.332 10.156-46.332 34.539 0 13.449 10.688 23.586 24.122 23.586 10.414 0 18.918-8.496 18.918-18.926 0-1.914-.547-3.828-.821-5.742 2.188-1.38 3.836-2.195 6.582-2.195 9.59 0 21.922 15.066 21.922 24.12 0 6.583-7.676 25.224-10.683 32.067l-27.696 65.523c-4.656 11.511-6.023 13.98-9.859 13.98-2.199 0-4.113-.543-6.313-.543-9.043 0-12.066 7.403-12.066 15.621 0 10.422 4.668 18.922 16.18 18.922 8.222 0 17.539-2.738 26.875-2.738 9.851 0 19.453 2.738 29.863 2.738 10.703 0 15.918-6.308 15.918-16.449 0-9.05-4.395-10.973-8.777-12.34-4.387-1.09-9.043-1.09-9.043-6.03 0-2.739 2.183-8.5 2.734-10.693l17.82-55.382h.535l17.825 52.914c1.386 3.57 3.574 9.871 3.574 13.437 0 3.016-3.836 3.563-7.688 5.481-3.836 1.64-7.949 4.664-7.949 12.88 0 8.502 5.488 16.182 14.27 16.182 7.675 0 16.164-2.738 24.668-2.738 9.316 0 18.371 2.738 27.961 2.738 11.511 0 16.179-8.5 16.179-18.922 0-8.218-3.027-15.62-12.058-15.62-2.485 0-4.946 1.101-7.414 1.101-3.008 0-5.481-1.93-9.59-13.172L423.79 89.101"/><path d="M484.28 196.28c0 13.719-.547 19.473-4.941 19.473-2.734 0-5.481-1.918-9.031-1.918-9.055 0-12.063 7.394-12.063 15.617 0 10.691 4.656 19.199 16.16 19.199 7.141 0 14.536-2.746 21.938-2.746 8.23 0 16.172 2.746 24.121 2.746 6.59 0 9.051-4.121 9.051-14.808V186.69h.547c8.496 12.059 21.933 18.368 37.832 18.368 39.48 0 53.457-40.028 53.457-73.465 0-37.555-17.539-77.313-60.313-77.313-18.086 0-34.551 6.574-44.14 25.226l-.54-.559.813-6.843c0-8.77-7.402-12.891-15.352-12.891-14.531 0-17.539 6.855-17.539 20.02v117.05zm91.844-67.16c0 9.32-.828 19.469-5.496 27.414-3.555 6.039-9.59 11.52-16.719 11.52-10.422 0-24.394-10.145-24.394-39.485 0-26.316 10.422-37.285 24.121-37.285 13.152 0 22.488 11.797 22.488 37.836"/><path d="M676.71 120.35c0-5.758 0-15.352 3.289-20.84 3.293-5.195 9.316-8.488 15.352-8.488 7.949 0 15.339 4.113 19.738 10.96 5.762 8.77 6.297 18.099 6.297 28.244v18.91c0 14.808-1.082 19.187-4.942 19.187-1.355 0-2.722-.54-4.101-.82-1.653-.551-3.02-1.086-4.934-1.086-9.043 0-12.058 7.395-12.058 15.617 0 10.422 4.66 18.918 16.718 18.918 9.043 0 15.078-2.738 24.129-2.738 7.395 0 12.61 2.738 19.453 2.738 7.129 0 8.782-3.02 8.782-9.047v-82.25c0-16.441 1.914-19.187 4.929-19.187 2.746 0 5.481 1.925 9.055 1.925 9.043 0 12.062-7.394 12.062-15.637 0-10.41-4.66-18.914-16.183-18.914-6.848 0-13.145 2.754-19.461 2.754-6.027 0-12.063-2.754-17.277-2.754-6.856 0-9.864 4.676-9.864 9.051V77.87h-.547c-10.136-15.09-29.882-23.594-48.253-23.594-28.231 0-45.223 16.457-45.223 44.141v50.72c0 16.725-1.926 19.186-4.942 19.186-1.367 0-2.746-.539-4.113-.82-1.637-.55-3.015-1.086-4.929-1.086-9.043 0-12.071 7.395-12.071 15.617 0 10.422 4.668 18.918 17.551 18.918 8.77 0 15.895-2.738 24.949-2.738 8.488 0 12.61 2.738 19.461 2.738 7.133 0 7.133-5.21 7.133-12.34v-68.26"/><path d="M882.02 89.102C867.754 49.903 845.012 0 796.223 0c-21.118 0-46.34 10.156-46.34 34.539 0 13.449 10.691 23.586 24.121 23.586 10.422 0 18.926-8.496 18.926-18.926 0-1.914-.547-3.828-.828-5.742 2.195-1.38 3.836-2.195 6.582-2.195 9.597 0 21.929 15.066 21.929 24.12 0 6.583-7.675 25.224-10.691 32.067l-27.688 65.523c-4.656 11.511-6.035 13.98-9.871 13.98-2.195 0-4.101-.543-6.308-.543-9.043 0-12.063 7.403-12.063 15.621 0 10.422 4.668 18.922 16.176 18.922 8.23 0 17.547-2.738 26.875-2.738 9.859 0 19.449 2.738 29.883 2.738 10.679 0 15.894-6.308 15.894-16.449 0-9.05-4.39-10.973-8.765-12.34-4.399-1.09-9.055-1.09-9.055-6.03 0-2.739 2.195-8.5 2.734-10.693l17.825-55.382h.546l17.813 52.914c1.387 3.57 3.57 9.871 3.57 13.437 0 3.016-3.836 3.563-7.675 5.481-3.836 1.64-7.958 4.664-7.958 12.88 0 8.502 5.489 16.182 14.258 16.182 7.688 0 16.172-2.738 24.688-2.738 9.316 0 18.359 2.738 27.949 2.738 11.516 0 16.184-8.5 16.184-18.922 0-8.218-3.032-15.62-12.063-15.62-2.473 0-4.941 1.101-7.41 1.101-3 0-5.473-1.93-9.594-13.172L882.02 89.101"/><path d="M956.56 189.16c0 17.82-1.641 22.207-6.856 22.207-4.394 0-8.215-1.926-12.336-1.926-9.312 0-14.246 10.149-14.246 18.368 0 11.792 6.855 20.839 30.977 20.839 12.609 0 23.574-2.75 37.285-2.75 23.843 0 39.473 2.75 54.273 2.75 14.27 0 27.69-1.648 39.48-7.949 14.81-7.949 23.3-21.93 23.3-38.93 0-20.839-14.53-35.355-34.53-38.378v-.551c26.3-6.309 41.93-22.199 41.93-48.25 0-45.785-41.66-56.75-74.02-56.75-15.07 0-28.78 2.754-50.98 2.754-16.184 0-25.488-2.754-37.832-2.754-23.028 0-29.883 9.05-29.883 20.84 0 8.219 4.934 18.367 14.246 18.367 4.121 0 7.942-1.914 12.336-1.914 5.215 0 6.856 5.476 6.856 22.199v71.828zm50.727-6.859c0-6.571 1.91-6.571 13.15-6.571 23.04 0 35.91 6.028 35.91 20.008 0 14.531-18.08 18.09-29.6 18.09-18.11 0-19.46-3.559-19.46-16.719v-14.808zm0-72.102c0-11.512 5.75-15.887 27.41-15.887 13.71 0 28.49 6.844 28.49 21.93 0 18.367-20.54 25.219-41.93 25.219-13.42 0-13.97-.281-13.97-11.793v-19.469"/><path d="M1194.2 117.61c-11.79.278-13.44-1.097-15.08-3.293-1.64-2.461-3.84-11.507-3.84-14.535 0-3.555 1.92-5.207 5.48-5.207 2.19 0 3.3-.262 4.66-.262 5.76 0 13.44-4.12 13.44-18.652 0-10.137-7.68-17.82-18.37-17.82-11.79 0-20.29 2.742-32.62 2.742-12.07 0-23.87-2.742-35.64-2.742-10.69 0-18.36 8.23-18.36 19.188 0 13.984 6.85 20.02 13.41 20.02 3.03 0 6.05-.547 9.33-.547 8.51 0 11.51 13.152 13.71 19.457l37.56 103.08c10.14 27.691 13.15 29.88 43.04 29.88 12.89 0 23.84 0 29.61-3.009 7.13-3.844 8.22-7.129 11.78-19.742l33.45-112.12c3.56-11.516 5.21-17.55 10.68-17.55 3.03 0 5.77.546 8.24.546 6.58 0 13.42-5.215 13.42-20.02 0-10.957-7.67-19.188-18.63-19.188-11.79 0-20.29 2.742-32.62 2.742-12.07 0-23.85-2.742-35.64-2.742-10.7 0-18.37 7.684-18.37 17.82 0 11.785 5.74 18.652 13.44 18.652 1.36 0 3.01-.273 5.19-.273 3.85 0 6.32 1.914 6.32 5.742 0 1.934-.56 3.3-.83 4.942-.54 2.746-1.64 7.945-3.02 10.144-1.65 2.742-4.38 2.742-8.5 2.742h-31.24zm0 42.211c-.27-1.094-.82-1.914-.82-3.011 0-2.204 3.29-3.559 10.41-3.559h7.4c9.86 0 12.06 1.086 12.06 3.836 0 1.926-.82 5.484-1.37 7.394l-11.24 50.715h-.54l-15.9-55.375"/><path d="M1323.9 189.16c0 17.82-1.65 22.207-6.87 22.207-4.37 0-8.21-1.926-12.32-1.926-9.33 0-14.27 10.149-14.27 18.368 0 11.792 6.87 20.839 30.99 20.839 12.6 0 23.56-2.75 37.28-2.75 23.84 0 39.47 2.75 54.27 2.75 14.27 0 27.69-1.648 39.48-7.949 14.81-7.949 23.3-21.93 23.3-38.93 0-20.839-14.53-35.355-34.53-38.378v-.551c26.31-6.309 41.93-22.199 41.93-48.25 0-45.785-41.67-56.75-74.01-56.75-15.08 0-28.79 2.754-50.99 2.754-16.18 0-25.49-2.754-37.84-2.754-23.01 0-29.88 9.05-29.88 20.84 0 8.219 4.94 18.367 14.27 18.367 4.11 0 7.95-1.914 12.32-1.914 5.22 0 6.87 5.476 6.87 22.199v71.828zm50.7-6.859c0-6.571 1.92-6.571 13.16-6.571 23.03 0 35.92 6.028 35.92 20.008 0 14.531-18.09 18.09-29.61 18.09-18.08 0-19.47-3.559-19.47-16.719v-14.808zm0-72.102c0-11.512 5.76-15.887 27.42-15.887 13.71 0 28.52 6.844 28.52 21.93 0 18.367-20.57 25.219-41.95 25.219-13.43 0-13.99-.281-13.99-11.793v-19.469"/><path d="M1559.1 167.23l15.08 27.415c3.57 6.308 6.3 10.418 6.3 14.257 0 7.95-12.05 3.012-12.05 19.457 0 12.344 7.13 20.293 15.62 20.293 10.96 0 22.2-2.75 33.45-2.75 11.23 0 19.18 2.75 30.16 2.75 12.33 0 19.19-9.043 19.19-20.839 0-8.223-4.93-18.368-14.27-18.368-3.83 0-7.39 1.375-11.23 1.375-3.02 0-5.21-.547-7.4-3.007-3.02-3.571-6.3-9.063-9.06-13.168l-33.71-53.731c-6.84-10.973-8.78-15.086-8.78-19.742V105c0-6.035 3.58-9.863 9.33-9.863 5.49 0 10.69 1.914 15.91 1.914 9.3 0 14.25-10.137 14.25-18.367 0-11.79-6.86-20.84-19.19-20.84-13.71 0-23.02 2.742-38.12 2.742-13.97 0-27.67-2.742-41.38-2.742-20.56 0-27.43 9.05-27.43 20.84 0 8.23 4.94 18.367 14.26 18.367 5.49 0 10.7-1.914 16.17-1.914 4.66 0 7.69 2.734 7.69 10.136v10.688c-.28 9.32-2.2 12.062-9.06 23.312l-31.79 52.36c-2.2 3.558-6.86 11.78-9.87 15.07-2.19 2.469-4.65 3.57-7.94 3.57-3.84 0-7.13-.828-10.97-.828-9.33 0-14.26 10.145-14.26 18.368 0 11.796 6.86 20.839 20.57 20.839 10.95 0 22.19-2.75 33.44-2.75 10.13 0 19.19 2.75 30.14 2.75 12.62 0 18.11-9.867 18.11-21.66 0-14.801-12.88-10.687-12.88-18.09 0-3.02 1.9-6.851 5.75-14.257l13.97-27.415m87.8-107.066c4.26 0 7.9 1.508 10.94 4.516 3.01 3.047 4.51 6.687 4.51 10.926 0 4.257-1.5 7.93-4.51 10.949-3.04 3.007-6.68 4.511-10.94 4.511-4.23 0-7.9-1.504-10.93-4.511-3.01-3.02-4.52-6.692-4.52-10.95 0-4.238 1.51-7.878 4.52-10.925 3.03-3.008 6.7-4.516 10.93-4.516m0 33.215c4.93 0 9.11-1.738 12.59-5.176 3.45-3.484 5.18-7.676 5.18-12.598 0-4.863-1.73-9.004-5.18-12.508-3.48-3.496-7.66-5.254-12.59-5.254-4.86 0-9.04 1.758-12.55 5.254-3.46 3.504-5.21 7.645-5.21 12.508 0 4.922 1.73 9.114 5.18 12.598 3.47 3.438 7.66 5.176 12.58 5.176"/><path d="M1647.9 75.891c1.98 0 3.16 1.063 3.16 2.645v.039c0 1.785-1.24 2.695-3.24 2.695h-4.1v-5.38h4.18zm-8.29 9.098h8.55c2.38 0 4.23-.68 5.45-1.903 1.08-1.054 1.63-2.539 1.63-4.308v-.04c0-3.015-1.64-4.91-4.03-5.808l4.59-6.691h-4.8l-4.03 6.008h-3.25v-6.008h-4.11v18.75"/></g></svg>